<svg width="24" height="23" viewBox="0 0 24 23" fill="none" xmlns="http://www.w3.org/2000/svg">
<g id="newspaper-regular 1">
<path id="Vector" d="M7.875 2.15625C7.25156 2.15625 6.75 2.63691 6.75 3.23438V16.8906C6.75 17.268 6.68437 17.6318 6.55781 17.9688H20.625C21.2484 17.9688 21.75 17.4881 21.75 16.8906V3.23438C21.75 2.63691 21.2484 2.15625 20.625 2.15625H7.875ZM3.375 20.125C1.50938 20.125 0 18.6785 0 16.8906V3.59375C0 2.99629 0.501562 2.51562 1.125 2.51562C1.74844 2.51562 2.25 2.99629 2.25 3.59375V16.8906C2.25 17.4881 2.75156 17.9688 3.375 17.9688C3.99844 17.9688 4.5 17.4881 4.5 16.8906V3.23438C4.5 1.44648 6.00938 0 7.875 0H20.625C22.4906 0 24 1.44648 24 3.23438V16.8906C24 18.6785 22.4906 20.125 20.625 20.125H3.375ZM8.25 4.67188C8.25 4.07441 8.75156 3.59375 9.375 3.59375H13.875C14.4984 3.59375 15 4.07441 15 4.67188V8.26562C15 8.86309 14.4984 9.34375 13.875 9.34375H9.375C8.75156 9.34375 8.25 8.86309 8.25 8.26562V4.67188ZM17.625 3.59375H19.125C19.7484 3.59375 20.25 4.07441 20.25 4.67188C20.25 5.26934 19.7484 5.75 19.125 5.75H17.625C17.0016 5.75 16.5 5.26934 16.5 4.67188C16.5 4.07441 17.0016 3.59375 17.625 3.59375ZM17.625 7.1875H19.125C19.7484 7.1875 20.25 7.66816 20.25 8.26562C20.25 8.86309 19.7484 9.34375 19.125 9.34375H17.625C17.0016 9.34375 16.5 8.86309 16.5 8.26562C16.5 7.66816 17.0016 7.1875 17.625 7.1875ZM9.375 10.7812H19.125C19.7484 10.7812 20.25 11.2619 20.25 11.8594C20.25 12.4568 19.7484 12.9375 19.125 12.9375H9.375C8.75156 12.9375 8.25 12.4568 8.25 11.8594C8.25 11.2619 8.75156 10.7812 9.375 10.7812ZM9.375 14.375H19.125C19.7484 14.375 20.25 14.8557 20.25 15.4531C20.25 16.0506 19.7484 16.5312 19.125 16.5312H9.375C8.75156 16.5312 8.25 16.0506 8.25 15.4531C8.25 14.8557 8.75156 14.375 9.375 14.375Z" fill="black"/>
</g>
</svg>
