<svg width="19" height="18" viewBox="0 0 19 18" fill="none" xmlns="http://www.w3.org/2000/svg">
<path id="Vector" d="M18.6521 9.90804C19.116 9.4058 19.116 8.59018 18.6521 8.08795L13.9019 2.94509C13.438 2.44286 12.6846 2.44286 12.2207 2.94509C11.7568 3.44732 11.7568 4.26295 12.2207 4.76518L14.9447 7.71429H7.12535C6.46848 7.71429 5.93779 8.28884 5.93779 9C5.93779 9.71116 6.46848 10.2857 7.12535 10.2857H14.9447L12.2207 13.2348C11.7568 13.7371 11.7568 14.5527 12.2207 15.0549C12.6846 15.5571 13.438 15.5571 13.9019 15.0549L18.6521 9.91205V9.90804ZM5.93779 2.57143C6.59466 2.57143 7.12535 1.99688 7.12535 1.28571C7.12535 0.574554 6.59466 0 5.93779 0H3.56267C1.59578 0 0 1.72768 0 3.85714V14.1429C0 16.2723 1.59578 18 3.56267 18H5.93779C6.59466 18 7.12535 17.4254 7.12535 16.7143C7.12535 16.0031 6.59466 15.4286 5.93779 15.4286H3.56267C2.90581 15.4286 2.37512 14.854 2.37512 14.1429V3.85714C2.37512 3.14598 2.90581 2.57143 3.56267 2.57143H5.93779Z" fill="black"/>
</svg>
